# xmcd
#
# Track frame offsets: 
#        150
#        15770
#        30528
#        46683
#        70140
#        83503
#        98835
#        111771
#        125945
#        141573
#
# Disc length: 2180 seconds
#
# Revision: 0
# Processed by: cddbd v1.5.2PL0 Copyright (c) Steve Scherf et al.
# Submitted via: ExactAudioCopy v1.3
#
DISCID=7a08820a
DTITLE=The Hideaways - The Lost Tapes, Vol. 1
DYEAR=2019
DGENRE=Rockin' Blues
TTITLE0=Let's Have A Natural Ball
TTITLE1=Farmer John
TTITLE2=Lonely Avenue
TTITLE3=Little By Little
TTITLE4=Bye Bye, Johnny
TTITLE5=I Got Love If You Want It
TTITLE6=Oh, Lonesome Me
TTITLE7=Pink Champagne
TTITLE8=Honey Boy
TTITLE9=I'm Still In Love With You
EXTD=
EXTT0=
EXTT1=
EXTT2=
EXTT3=
EXTT4=
EXTT5=
EXTT6=
EXTT7=
EXTT8=
EXTT9=
PLAYORDER=
